<?xml version="1.0" standalone="no"?>
<!DOCTYPE svg PUBLIC "-//W3C//DTD SVG 20010904//EN"
 "http://www.w3.org/TR/2001/REC-SVG-20010904/DTD/svg10.dtd">
<svg version="1.0" xmlns="http://www.w3.org/2000/svg"
 width="222.000000pt" height="227.000000pt" viewBox="0 0 222.000000 227.000000"
 preserveAspectRatio="xMidYMid meet">

<g transform="translate(0.000000,227.000000) scale(0.100000,-0.100000)"
fill="#000000" stroke="none">
<path d="M220 2252 c0 -9 -188 -1046 -195 -1079 -5 -23 -4 -23 94 -23 l99 0
16 88 c8 48 36 202 61 342 25 140 62 343 81 450 19 107 37 203 40 213 5 16 3
17 -14 8 -26 -14 -162 -15 -162 -1 0 6 -4 10 -10 10 -5 0 -10 -3 -10 -8z"/>
<path d="M417 1727 c-55 -292 -101 -542 -104 -554 l-5 -23 239 0 c231 0 239 1
257 21 14 17 20 19 26 8 7 -10 21 -1 56 35 30 29 44 50 37 54 -7 5 -2 25 18
62 15 30 29 48 30 40 0 -8 7 3 14 25 17 51 19 176 3 229 -14 46 -92 131 -110
120 -7 -4 -8 -3 -4 5 4 6 16 9 27 6 13 -5 29 3 52 26 18 19 27 34 20 36 -14 5
42 129 56 126 11 -3 31 83 31 131 0 51 -28 133 -56 163 -17 19 -27 24 -31 16
-6 -16 -428 -19 -438 -3 -3 6 -9 10 -13 10 -4 0 -51 -240 -105 -533z"/>
<path d="M1785 1850 c-8 -14 3 -30 21 -30 8 0 14 9 14 20 0 21 -24 28 -35 10z"/>
<path d="M1125 1815 c-9 -50 -35 -248 -35 -262 0 -9 15 -13 51 -13 68 0 131
19 137 42 2 10 8 18 13 18 5 0 9 14 9 30 0 21 -10 41 -34 65 -32 32 -35 33
-75 23 -23 -6 -44 -8 -47 -5 -3 2 -2 28 2 56 l7 51 42 0 c54 0 70 -17 60 -66
-5 -28 -3 -35 7 -32 7 3 12 12 10 22 -2 9 2 16 8 16 17 0 11 46 -7 63 -11 9
-42 17 -81 19 l-62 3 -5 -30z m110 -135 c31 -12 39 -30 31 -73 -4 -21 -12 -33
-24 -34 -9 0 -41 -4 -71 -9 l-54 -7 6 39 c4 21 7 51 7 67 0 25 3 27 39 27 22
0 51 -4 66 -10z"/>
<path d="M1341 1687 c-7 -45 -15 -97 -18 -116 -4 -26 -3 -33 8 -29 15 5 41
132 33 161 -4 11 0 17 10 17 9 0 21 8 27 19 7 10 20 16 29 14 10 -3 20 -1 23
4 9 14 -46 14 -55 1 -5 -9 -11 -9 -15 -3 -21 27 -31 10 -42 -68z"/>
<path d="M1530 1750 c-6 -11 -16 -20 -22 -20 -21 0 -37 -36 -38 -83 0 -63 39
-107 94 -107 19 0 37 4 40 9 10 16 56 19 56 4 0 -8 6 -13 13 -11 12 5 35 127
36 196 1 35 -14 43 -24 13 -6 -19 -7 -19 -24 -2 -27 27 -117 28 -131 1z m120
-20 c30 -30 34 -63 12 -113 -13 -30 -27 -46 -43 -49 -13 -3 -31 -9 -40 -12
-11 -5 -28 4 -53 27 -29 27 -36 42 -36 71 0 75 109 127 160 76z"/>
<path d="M1780 1763 c0 -5 -7 -51 -15 -103 -18 -117 -18 -123 -2 -118 21 8 48
228 27 228 -5 0 -10 -3 -10 -7z"/>
<path d="M1860 1686 c-6 -45 -14 -96 -17 -115 -4 -26 -3 -33 8 -29 16 5 41
132 32 162 -3 11 -1 16 5 12 5 -3 17 3 27 14 22 24 77 27 95 5 10 -11 11 -39
6 -105 -4 -54 -3 -90 3 -90 14 0 19 22 27 104 9 98 -5 123 -67 124 -24 1 -48
-5 -56 -14 -18 -18 -34 -18 -27 -1 3 8 -2 14 -10 14 -10 0 -17 -22 -26 -81z"/>
<path d="M1086 1317 c-17 -13 -14 -18 43 -78 47 -48 61 -58 58 -41 -4 15 1 30
14 43 22 22 24 48 5 74 -12 17 -16 17 -30 6 -13 -11 -20 -11 -28 -3 -16 16
-40 15 -62 -1z"/>
<path d="M1020 1263 c0 -24 -24 -48 -40 -38 -24 15 -6 -18 49 -87 66 -82 90
-99 141 -99 60 0 70 3 60 20 -6 11 -1 24 16 44 13 16 24 38 23 50 0 15 -2 17
-6 7 -3 -8 -19 -30 -34 -47 -21 -25 -30 -29 -36 -19 -4 7 -45 53 -90 102 -63
67 -83 83 -83 67z"/>
<path d="M910 1120 c-12 -46 5 -101 38 -119 26 -14 82 -14 82 -1 0 6 11 10 24
10 22 0 16 9 -49 75 -41 41 -77 75 -79 75 -3 0 -10 -18 -16 -40z"/>
<path d="M1466 1133 c4 -16 -43 -46 -48 -31 -9 25 -98 -130 -98 -168 0 -8 51
-92 113 -187 396 -601 397 -602 397 -641 0 -20 -7 -50 -15 -65 -14 -28 -14
-29 17 -35 67 -13 182 -7 211 12 34 23 56 53 50 68 -2 7 8 36 23 65 16 30 27
58 26 63 -2 5 4 6 13 2 27 -10 16 10 -96 179 -119 181 -333 508 -373 572 -17
28 -26 57 -26 83 0 22 -5 40 -10 40 -6 0 -10 8 -8 18 2 13 -5 18 -32 20 -19 2
-38 9 -42 15 -6 9 -8 9 -8 0 0 -14 -85 -19 -93 -5 -2 4 -2 2 -1 -5z"/>
<path d="M1780 1145 c0 -3 73 -112 163 -242 132 -195 163 -233 165 -213 2 14
21 123 42 243 20 120 33 214 27 208 -14 -14 -351 -15 -378 -1 -10 6 -19 8 -19
5z"/>
<path d="M1665 1130 c-3 -5 -2 -10 4 -10 5 0 13 5 16 10 3 6 2 10 -4 10 -5 0
-13 -4 -16 -10z"/>
<path d="M58 718 c-29 -36 -22 -72 22 -123 53 -61 54 -113 4 -129 -17 -5 -27
0 -43 20 -26 33 -45 29 -28 -6 7 -13 24 -29 37 -33 35 -12 80 7 80 33 0 11 5
20 11 20 22 0 -1 62 -41 113 -43 53 -48 82 -18 101 13 8 22 5 41 -12 27 -25
37 -28 37 -9 0 41 -75 59 -102 25z"/>
<path d="M583 698 c-7 -31 -14 -43 -26 -42 -9 1 -17 -2 -17 -7 0 -5 7 -9 16
-9 15 0 16 -10 9 -81 -3 -45 -9 -88 -12 -95 -3 -8 1 -14 10 -14 10 0 16 17 21
63 12 111 17 127 37 127 11 0 19 4 19 9 0 5 -9 7 -21 4 -19 -5 -20 -3 -14 41
9 59 -10 63 -22 4z"/>
<path d="M222 566 c27 -87 28 -93 13 -125 -9 -18 -13 -36 -10 -39 3 -3 6 -3 8
-1 29 50 127 252 123 256 -3 3 -22 -29 -43 -71 -20 -42 -40 -76 -43 -76 -4 0
-17 33 -29 73 -13 41 -29 74 -36 74 -8 0 -2 -29 17 -91z"/>
<path d="M416 648 c-29 -16 -20 -64 19 -95 40 -32 46 -67 14 -83 -16 -9 -24
-8 -38 4 -22 20 -31 20 -31 1 0 -20 37 -38 66 -31 30 8 54 53 44 82 -5 12 -22
31 -38 43 -34 24 -45 51 -27 68 9 9 19 8 39 -2 25 -13 43 -5 31 14 -7 12 -57
11 -79 -1z"/>
<path d="M702 631 c-17 -16 -34 -41 -38 -55 -21 -83 49 -161 114 -127 9 5 25
12 35 15 18 6 24 26 7 26 -5 0 -10 -4 -10 -10 0 -5 -10 -10 -23 -10 -13 0 -27
-4 -33 -10 -14 -14 -62 29 -70 63 l-6 27 91 0 c75 0 91 3 91 15 0 22 -27 85
-37 86 -79 10 -90 8 -121 -20z m111 -8 c8 -10 17 -27 19 -38 3 -18 -3 -20 -68
-23 -85 -3 -102 13 -56 53 32 29 82 32 105 8z"/>
<path d="M912 573 c-14 -109 -15 -123 -2 -123 8 0 27 107 23 139 -2 19 37 50
62 51 48 0 55 -25 39 -142 -4 -31 -2 -48 5 -48 11 0 19 36 25 105 5 73 78 116
107 64 7 -13 7 -42 0 -91 -5 -40 -8 -75 -5 -77 11 -11 22 24 29 91 5 54 3 75
-9 92 -18 29 -61 31 -97 6 -24 -18 -26 -18 -36 -1 -14 22 -70 25 -90 5 -13
-13 -17 -13 -28 2 -10 14 -14 3 -23 -73z"/>
<path d="M1280 649 c0 -5 -4 -8 -9 -5 -9 6 -21 -16 -21 -40 0 -8 18 -32 41
-52 34 -32 39 -42 34 -64 -5 -20 -12 -25 -31 -23 -13 1 -30 8 -38 14 -9 8 -16
8 -20 2 -4 -6 5 -17 18 -27 19 -12 32 -14 53 -6 15 5 27 15 26 21 -2 6 2 11 7
11 24 0 7 49 -30 85 -44 43 -47 50 -26 70 11 11 17 11 40 0 25 -13 27 -13 24
2 -4 19 -68 30 -68 12z"/>
<path d="M1375 459 c-10 -46 -75 -426 -75 -443 0 -14 21 -16 205 -16 l206 0
-128 188 c-213 313 -201 298 -208 271z"/>
</g>
</svg>
