<?xml version="1.0" standalone="yes"?>
<svg xmlns="http://www.w3.org/2000/svg" width="1862" height="2048">
<path style="fill:#010101; stroke:none;" d="M0 0L0 2048L1862 2048L1862 0L0 0z"/>
<path style="fill:#235c99; stroke:none;" d="M731 38C725.733 38.0471 720.762 38.3708 719 44C701.601 44.1555 685.01 61.1639 668.911 66.78C663.118 68.8008 650.827 72.9279 649 79C636.688 79.1034 623.069 89.058 612.625 95.0309C597.905 103.449 581.253 108.649 566.576 117.545C560.269 121.367 546.338 123.529 544 131C534.59 131.084 526.514 137.599 518.625 142.019C514.66 144.241 510.71 143.011 509 148C497.282 148.958 482.439 158.188 472.715 164.455C468.293 167.305 463.751 166.181 462 172C457.293 172.04 452.191 172.071 450.009 177.055C447.444 182.915 449 191.719 449 198L449 245C449 325.573 451 405.505 451 486L451 1516C451 1608.18 449 1699.84 449 1792L449 1854C449 1865.55 447.589 1875.88 462 1876C463.751 1881.82 468.293 1880.69 472.715 1883.54C482.125 1889.61 497.67 1899.48 509 1900C511.137 1906.24 525.729 1910.94 532 1911C533.762 1916.63 538.733 1916.95 544 1917C545.803 1922.72 557.458 1926.7 562.961 1928.68C579.262 1934.55 596.656 1951.84 614 1952C615.7 1957.39 622.004 1957.79 626.424 1960.63C632.655 1964.63 640.363 1966.5 646.83 1969.99C655.14 1974.48 663.218 1980.92 673 1981C674.174 1987.41 689.816 1992.49 696 1993C698.055 1999.34 712.645 2003.95 719 2004C720.762 2009.63 725.733 2009.95 731 2010C733.683 2018.52 746.922 2016 754 2016L824 2016L1030 2016L1093 2016C1105.65 2016 1118.73 2017.25 1131 2014L1130 2011L1128 2011L1126 2015L1125 2015L1126 2011C1120.02 2004.62 1123 1989.32 1123 1981L1123 1901L1123 1580L1123 429L1123 138L1123 65C1123 57.2224 1120.38 43.9955 1126 38L1125 35L1128 34L1128 33L1125 34C1124.36 30.1511 1108.81 32 1105 32L1040 32L804 32L749 32C742.818 32 732.923 30.441 731 38z"/>
<path style="fill:#498bc7; stroke:none;" d="M1125.67 33.3334L1126.33 33.6666L1125.67 33.3334M1128 33L1125 35L1126 38C1120.15 42.1346 1123 57.4155 1123 64L1123 142L1123 461L1123 1634L1123 1918L1123 1987C1123 1993.3 1120.37 2007.02 1126 2011L1125 2015L1126 2015L1128 2011L1131 2013C1135.16 2008.73 1143.88 2003.65 1150 2004L1153 2000L1152 2003L1153 2003L1162 1998C1162 1995.33 1163.15 1995.61 1165 1997L1166 1996L1164 1995L1164 1994L1175 1992L1175 1990L1177 1991L1178 1990C1178.3 1987.05 1184.03 1984.25 1186 1986L1187 1986L1189 1985L1197 1978L1198 1978L1199 1980L1200 1975C1203.9 1974.95 1207.77 1975.21 1209 1971L1210 1971L1210 1974L1211 1974L1213 1969L1223 1966L1231 1963.17L1248 1955L1248 1954L1245 1955L1245 1954L1260 1949L1259 1946L1270 1945L1271 1944L1270 1941L1270 1940L1283 1938L1282 1935L1295 1931L1293 1930L1293 1929C1298.1 1928.78 1302.44 1929.04 1305 1924L1307 1925L1316 1920L1316 1917L1317 1920L1318 1920L1318 1917C1323.04 1916.94 1325.72 1916.2 1327 1911L1337 1911L1338 1908L1340 1910L1350 1902L1352 1904L1353 1903L1351 1902L1351 1901L1362 1899L1361 1897L1365 1897L1363 1894L1371 1894L1372 1890L1373 1890L1373 1893L1374 1893L1376 1892L1376 1888L1384 1888L1384 1884L1385 1884L1385 1887L1386 1887L1386 1882C1390.39 1881.94 1393.83 1882.22 1396 1878L1400 1879L1400 1878L1397 1877L1410 1873C1410 1870.23 1412.53 1870.76 1413 1868C1414.45 1859.57 1413 1849.57 1413 1841L1413 1783C1413 1745.46 1417.14 1705.28 1413 1668C1412.43 1662.86 1409.51 1658.22 1409 1653C1406.3 1625.27 1409 1595.88 1409 1568L1409 891L1409 580L1409 452C1409 431.333 1407 409.556 1409 389C1409.42 384.662 1412.58 381.338 1413 377C1414.62 360.359 1413 342.73 1413 326C1413 275.967 1410.16 224.606 1412 175C1408.61 173.306 1404.22 173.61 1401 172C1399.06 171.03 1398.86 168.302 1397 167C1393.6 164.621 1385.8 166.82 1387 162L1373 157L1376 158L1360 151L1365 152L1365 151L1354 149C1351.41 142.767 1345.93 143.105 1340 142C1339.72 136.406 1333.44 137.059 1329 137L1328 132C1322.92 131.534 1319.13 130.115 1316 126L1306 125L1304 121L1302 122L1294 116L1271 108L1269 104L1271 106L1271 107L1258 101C1258.31 99.291 1258.09 97.5009 1257 100L1256 100C1254.61 96.0444 1247.97 93.5962 1244 93L1235 90L1232 85L1233 88L1232 88C1229.83 84.91 1227.67 84.4167 1224 85L1225 82L1212 79C1214.63 71.1025 1198.41 75.3727 1200 69L1185 66L1189 65L1174 58L1178 59L1178 58C1170.47 54.4739 1161.46 49.0757 1153 50C1153.27 43.0767 1144.4 44.4415 1141 39L1128 33z"/>
<path style="fill:#235c99; stroke:none;" d="M1129 33L1131 36L1129 33M1131 36L1132 37L1131 36M1130 37L1131 38L1130 37M1135 38L1136 39L1135 38z"/>
<path style="fill:#86b3d7; stroke:none;" d="M1138 38L1139 39L1138 38z"/>
<path style="fill:#235c99; stroke:none;" d="M1139 39L1140 40L1139 39M1141 39L1143 42L1141 39M1138 40L1139 41L1138 40M1141 43L1142 44L1141 43M1143 43L1144 44L1143 43M1150 44L1151 45L1150 44M1149 45L1151 47L1149 45M1153 45L1153 50L1154 50L1153 45z"/>
<path style="fill:#86b3d7; stroke:none;" d="M1154 46L1155 47L1154 46z"/>
<path style="fill:#235c99; stroke:none;" d="M1155 49L1156 50L1155 49M1162.67 50.3334L1163.33 50.6666L1162.67 50.3334M1165.33 51.6666L1165.67 52.3334L1165.33 51.6666M1162 52L1163 53L1162 52M1166 53L1167 54L1166 53M1164.67 54.3334L1165.33 54.6666L1164.67 54.3334M1168 55L1169 56L1168 55M1170.67 55.3334L1171.33 55.6666L1170.67 55.3334M1173 56L1174 57L1173 56M1175 56L1176 57L1175 56z"/>
<path style="fill:#86b3d7; stroke:none;" d="M1177 57L1178 58L1177 57z"/>
<path style="fill:#235c99; stroke:none;" d="M1174 58L1175 61L1178 60L1178 59L1174 58M1178 60L1179 61L1178 60M1182 61L1183 62L1182 61M1184 61L1185 62L1184 61M1185 62L1186 63L1185 62M1187 62L1188 63L1187 62M1185 66L1190 64L1185 66M1196 67L1197 68L1196 67M1198.67 68.3334L1199.33 68.6666L1198.67 68.3334M1199 70L1201 73L1202 73L1201 69L1199 70M1207 73L1209 75L1209 73L1207 73M1210 74L1213 77L1210 74M1213 77L1212 79L1214 79L1213 77M1219 79L1219 80L1222 80L1219 79M1222 80L1225 82L1222 80M1220 81L1221 82L1220 81M1224.33 83.6666L1224.67 84.3334L1224.33 83.6666M1227.67 84.3334L1228.33 84.6666L1227.67 84.3334z"/>
<path style="fill:#86b3d7; stroke:none;" d="M1229 84L1230 85L1229 84z"/>
<path style="fill:#235c99; stroke:none;" d="M1231 85L1233 88L1231 85M1233 85L1234 86L1233 85M1234 86L1235 90L1236 90L1237 90L1234 86z"/>
<path style="fill:#86b3d7; stroke:none;" d="M1236 87L1237 88L1236 87z"/>
<path style="fill:#235c99; stroke:none;" d="M1238 90L1239 91L1238 90M1241.67 90.3334L1242.33 90.6666L1241.67 90.3334M1244 91L1244 93L1246 91L1244 91M1246 92L1248 94L1248 92L1246 92M1248.33 94.6666L1248.67 95.3334L1248.33 94.6666M1246 95L1247 96L1246 95M1254 96L1255 97L1254 96M1256 97L1256 100L1257 100L1258 97L1256 97M1258 98L1258 101L1259 101L1260 101L1258 98z"/>
<path style="fill:#86b3d7; stroke:none;" d="M1259 98L1260 99L1259 98z"/>
<path style="fill:#235c99; stroke:none;" d="M1257 101L1258 102L1257 101M1266 102L1267 103L1266 102M1268 103L1271 107L1271 106L1270 103L1268 103M1271 105L1272 106L1271 105M1271 107L1272 108L1271 107M1276 108L1277 109L1276 108M1278.67 108.333L1279.33 108.667L1278.67 108.333M1280 109L1284 113L1282 109L1280 109z"/>
<path style="fill:#498bc7; stroke:none;" d="M1281 110L1282 111L1281 110z"/>
<path style="fill:#86b3d7; stroke:none;" d="M1283 111L1284 112L1283 111z"/>
<path style="fill:#235c99; stroke:none;" d="M1279 112L1280 113L1279 112M1284 113L1284 114L1287 114L1284 113M1291 114L1293 117L1294 116L1291 114z"/>
<path style="fill:#86b3d7; stroke:none;" d="M1292 114L1293 115L1292 114z"/>
<path style="fill:#235c99; stroke:none;" d="M1290 115L1291 116L1290 115M1294 116L1293 118L1295 118L1294 116M1299.67 119.333L1300.33 119.667L1299.67 119.333M1302 122L1307 123C1305.16 121.107 1304.01 119.953 1302 122M1306 124L1307 125L1306 124M1311.67 125.333L1312.33 125.667L1311.67 125.333z"/>
<path style="fill:#86b3d7; stroke:none;" d="M1313 125L1314 126L1313 125z"/>
<path style="fill:#235c99; stroke:none;" d="M1314 126L1315 127L1314 126M1316 126L1318 129L1316 126M1318 129L1319 130L1318 129M1317 130L1318 131L1317 130M1326 132L1327 133L1326 132M1328 132L1330 135L1328 132M1325 133L1326 134L1325 133z"/>
<path style="fill:#86b3d7; stroke:none;" d="M1329 136L1330 137L1329 136z"/>
<path style="fill:#235c99; stroke:none;" d="M1330 136L1331 137L1330 136M1335 137L1336 138L1335 137M1337 137L1338 138L1337 137M1340 138L1340 142L1341 142L1342 142L1340 138M1337 139L1338 140L1337 139z"/>
<path style="fill:#86b3d7; stroke:none;" d="M1341 139L1342 140L1341 139M1342 142L1343 143L1342 142z"/>
<path style="fill:#235c99; stroke:none;" d="M1349 143L1350 144L1349 143z"/>
<path style="fill:#86b3d7; stroke:none;" d="M1350 143L1351 144L1350 143z"/>
<path style="fill:#235c99; stroke:none;" d="M1352.33 144.667L1352.67 145.333L1352.33 144.667M1349.33 145.667L1349.67 146.333L1349.33 145.667M1353 146L1354 147L1353 146M1351 147L1352 148L1351 147z"/>
<path style="fill:#86b3d7; stroke:none;" d="M1354.67 148.333L1355.33 148.667L1354.67 148.333z"/>
<path style="fill:#235c99; stroke:none;" d="M1356 148L1357 149L1356 148M1358 148L1359 149L1358 148M1360 149L1360 150L1363 150L1360 149z"/>
<path style="fill:#86b3d7; stroke:none;" d="M1364 150L1365 151L1364 150z"/>
<path style="fill:#235c99; stroke:none;" d="M1360 151L1365 153L1360 151M1365 153L1366 154L1365 153M1370 154L1373 156L1370 154M1374 155L1375 156L1374 155M1373 157C1374.56 158.813 1375.44 158.813 1377 157L1373 157M1383 160L1384 161L1383 160M1384 161L1384 162L1387 162L1384 161M1383 162L1384 163L1383 162M1386 163L1389 165L1388 162L1386 163z"/>
<path style="fill:#86b3d7; stroke:none;" d="M1387 165L1388 166L1387 165z"/>
<path style="fill:#235c99; stroke:none;" d="M1394.67 166.333L1395.33 166.667L1394.67 166.333M1397 167L1400 170L1397 167M1400 170L1401 171L1400 170M1397 171L1398 172L1397 171z"/>
<path style="fill:#86b3d7; stroke:none;" d="M1400 171L1401 172L1400 171z"/>
<path style="fill:#235c99; stroke:none;" d="M1406.67 172.333L1407.33 172.667L1406.67 172.333z"/>
<path style="fill:#86b3d7; stroke:none;" d="M1408 172L1409 173L1408 172z"/>
<path style="fill:#235c99; stroke:none;" d="M1409 173L1412 175L1409 173M1407 174L1408 175L1407 174M1411 176L1412 177L1411 176M1412 177L1413 178L1412 177z"/>
<path style="fill:#86b3d7; stroke:none;" d="M177.667 311.333L178.333 311.667L177.667 311.333z"/>
<path style="fill:#235c99; stroke:none;" d="M179 311L178 314C174.002 312.078 171.399 312.574 170 317C160.666 317.199 152.39 323.555 144.625 328.03C133.472 334.458 120.616 340.031 108.83 345.505C102.799 348.307 90.0909 351.318 88 358C83.0589 358.042 77.2864 357.979 77 364C63.8517 364.036 51.0195 374.021 39.7145 380.03C35.448 382.298 31.1912 381.836 29.0093 387.019C26.6036 392.732 28 400.911 28 407L28 450L28 599L28 1376L28 1595L28 1641C28 1645.85 26.3733 1654.48 29.179 1658.68C31.3461 1661.93 36.6468 1661 40 1661C41.0688 1667.7 46.3372 1667 52 1667C52.5278 1673.62 57.4681 1673 63 1673C64.3244 1679.09 69.6313 1678.76 75 1679C76.0458 1685.27 81.8197 1684 87 1684C87.557 1691.15 93.1791 1690 99 1690C98.7561 1696.83 104.705 1696 110 1696C111.069 1702.7 116.337 1702 122 1702C123.045 1708.4 127.154 1706.47 131.741 1709.01C139.948 1713.54 147.259 1719 157 1719C157.558 1726 163.305 1725 169 1725C169.46 1730.91 172.738 1730.98 178 1731C180.91 1379.46 179 1027.63 179 676L179 407L179 339C179 328.731 176.338 318.734 183 311L179 311z"/>
<path style="fill:#86b3d7; stroke:none;" d="M181 311L182 312L181 311z"/>
<path style="fill:#498bc7; stroke:none;" d="M1681.67 311.333L1682.33 311.667L1681.67 311.333z"/>
<path style="fill:#235c99; stroke:none;" d="M1649 323C1643.18 323 1636.71 322.222 1631 323.483C1628.55 324.026 1624.77 325.444 1627 328L1627 329C1619.27 329 1603.76 325.709 1601 335C1594.89 335 1587 333.668 1581.13 335.433C1577.58 336.498 1575.99 339.594 1572 339.941C1565.75 340.484 1555.72 338.11 1554 346C1547.2 346 1532.48 343.096 1531 352C1524.6 352 1517.33 351.032 1511.04 352.228C1508.53 352.705 1505.31 354.475 1507 357L1507 358C1499.88 358 1483.63 354.767 1482 364C1463.16 364 1447.01 368.006 1429.83 374.412C1425.08 376.183 1417.76 372.907 1413.84 376.742C1409.28 381.197 1409 389.146 1409 395L1409 435L1409 600L1409 1369L1409 1597L1409 1646C1409 1651.36 1408.41 1661.42 1412.79 1665.49C1416.03 1668.5 1423.88 1667 1428 1667L1428 1668L1426 1669C1432.39 1674.61 1442.04 1673 1450 1673C1452.61 1681.06 1464.38 1677.57 1470.91 1679.29C1489.48 1684.17 1505.22 1690 1525 1690C1524.86 1699.25 1542.59 1696 1549 1696C1548.86 1705.03 1565.8 1702 1572 1702C1573.49 1710.93 1585.51 1706.67 1591.9 1708.31C1594.69 1709.03 1596.36 1711.58 1599.1 1712.43C1603.88 1713.9 1609.13 1712.33 1613.99 1713.23C1617.95 1713.96 1620.21 1717.52 1624.01 1718.57C1629.76 1720.15 1637.06 1719 1643 1719C1645.85 1728.46 1663.14 1725 1671 1725L1670 1729L1687 1731C1683.57 1717.47 1685 1702.84 1685 1689L1685 1619L1685 1390L1685 654L1685 402L1685 340C1685 332.563 1682.77 322.189 1689 317L1687 315L1689 312C1685.67 312.304 1682.29 311.292 1679.01 312.245C1675.62 313.231 1673.51 316.281 1669.96 316.852C1663.03 317.964 1651.76 314.247 1649 323z"/>
<path style="fill:#498bc7; stroke:none;" d="M176 312L178 314L178 312L176 312M178 1731L195 1728L195 1727L191 1727C196.211 1723.05 207.541 1724.48 214 1725L216 1719L220 1721L240 1719C240 1711.1 259.725 1712.7 265 1713L264 1708L289 1707C293.714 1699.44 305.098 1702.19 313 1700L312 1697L338 1694L336 1690L360 1689L361 1684L382.91 1683.48L409 1678C410.693 1675.46 413.421 1674.68 410 1674L410 1673C416.723 1673 434.607 1675.35 436 1667L449 1667C456.141 1632.39 451 1592.35 451 1557L451 1344L451 674L451 446C451 429.334 450.922 412.666 451.001 396C451.028 390.304 452.464 381.469 448.012 376.817C444.582 373.232 432.61 375 428 375L428 374L430 373L428 373L428 372L430 372L430 371L427 372L427 370C416.778 370.943 410.175 367.278 400.985 364.978C396.098 363.754 390.875 364.932 386.104 363.686C381.88 362.583 379.726 358.938 374.999 358.336C367.803 357.421 355.923 361.221 354 352L331 352L332 348L329 348C325.382 343.878 313.258 346 308 346C305.735 338.539 291.597 340.004 285 340C281.353 328.905 262.51 341.219 259 330L232 328L234 324L232 323L212 323L212 322L214 321L213 319L211 318L210 318L209 320L208 317L183 317L183 316L189 315L189 314L186 314C177.343 304.629 179 328.017 179 331L179 399L179 668C179 1022.32 178.977 1376.77 178 1731M1685 312L1686 313L1685 312M1687 312L1688 313L1687 312M1689 312L1687 315L1689 316L1689 317C1682.59 320.534 1685 331.594 1685 338L1685 399L1685 655L1685 1378L1685 1611L1685 1686C1685 1698.72 1683.35 1712.73 1685.56 1725.28C1686.67 1731.58 1693.1 1731.37 1693 1725C1698.7 1725 1704.44 1726 1705 1719C1710.54 1719 1715.93 1719.53 1717 1713C1722.04 1713.56 1727.29 1713.42 1729 1708L1740 1707L1740 1702L1752 1701L1752 1696C1757.45 1695.97 1762.93 1696.42 1764 1690L1775 1689C1776.6 1683.72 1781.06 1683.66 1786 1684L1787 1679C1792.22 1678.89 1797.99 1679.04 1799 1673L1810 1672L1810 1667C1815.55 1666.97 1820.95 1667.54 1822 1661L1834 1659C1830.29 1626.67 1834 1591.6 1834 1559L1834 1355L1834 736L1834 488L1834 422C1834 407.346 1835.45 394.769 1829 382L1818 381L1821 379L1821 378L1817 379C1813.5 373.275 1802.62 368.338 1796 370L1798 367L1782 361L1781 361C1780.15 357.013 1776.51 358 1773 358C1773.2 351.388 1762.73 351.842 1758 351L1759 348L1747 346L1747 342L1750 344L1734 335L1725 335L1727 332L1714 329L1716 326L1701 323L1701 322L1704 322L1702 318C1696.42 317.493 1692.69 316.251 1689 312z"/>
<path style="fill:#235c99; stroke:none;" d="M1690 312L1692 315L1690 312M184.333 313.667L184.667 314.333L184.333 313.667M186 313L187 314L186 313z"/>
<path style="fill:#498bc7; stroke:none;" d="M1686 313L1687 314L1686 313z"/>
<path style="fill:#235c99; stroke:none;" d="M187 314L188 315L187 314z"/>
<path style="fill:#498bc7; stroke:none;" d="M176 315L177 316L176 315z"/>
<path style="fill:#235c99; stroke:none;" d="M183 316L183 317L190 316L183 316M1692.33 315.667L1692.67 316.333L1692.33 315.667z"/>
<path style="fill:#498bc7; stroke:none;" d="M163 317L164 318L163 317z"/>
<path style="fill:#235c99; stroke:none;" d="M203.667 317.333L204.333 317.667L203.667 317.333M208 317L210 320L208 317M211.333 318.667L211.667 319.333L211.333 318.667M1700 318L1701 319L1700 318M1702 318L1704 321L1702 318M212.667 320.333L213.333 320.667L212.667 320.333M1704 321L1701 322L1701 323L1705 322L1704 321M212 322L213 323L212 322z"/>
<path style="fill:#010101; stroke:none;" d="M1651 322L1652 323L1651 322z"/>
<path style="fill:#86b3d7; stroke:none;" d="M1704 322L1705 323L1704 322z"/>
<path style="fill:#235c99; stroke:none;" d="M229 323L230 324L229 323M232 323L232 325L234 323L232 323z"/>
<path style="fill:#498bc7; stroke:none;" d="M1630 323L1631 324L1630 323z"/>
<path style="fill:#235c99; stroke:none;" d="M1708.67 323.333L1709.33 323.667L1708.67 323.333z"/>
<path style="fill:#86b3d7; stroke:none;" d="M1710 323L1711 324L1710 323z"/>
<path style="fill:#235c99; stroke:none;" d="M1711 323L1712 324L1711 323M234 324L232 328L238 328L234 324z"/>
<path style="fill:#498bc7; stroke:none;" d="M235 324L236 325L235 324z"/>
<path style="fill:#235c99; stroke:none;" d="M1712 324L1712 325L1716 326L1716 325L1712 324z"/>
<path style="fill:#498bc7; stroke:none;" d="M236 325L237 326L236 325z"/>
<path style="fill:#010101; stroke:none;" d="M1626 327L1629 326L1626 327z"/>
<path style="fill:#235c99; stroke:none;" d="M1711 325L1712 326L1711 325M1714 327L1714 329L1716 329L1716 327L1714 327z"/>
<path style="fill:#498bc7; stroke:none;" d="M139 329L140 330L139 329z"/>
<path style="fill:#235c99; stroke:none;" d="M252 329L253 330L252 329M257.667 329.333L258.333 329.667L257.667 329.333z"/>
<path style="fill:#86b3d7; stroke:none;" d="M1722 329L1723 330L1722 329z"/>
<path style="fill:#235c99; stroke:none;" d="M1723 329L1724 330L1723 329M259 330L261 334L259 330z"/>
<path style="fill:#86b3d7; stroke:none;" d="M260 330L261 331L260 330z"/>
<path style="fill:#235c99; stroke:none;" d="M1724 330L1724 331L1727 332L1724 330z"/>
<path style="fill:#498bc7; stroke:none;" d="M260 331L261 332L260 331z"/>
<path style="fill:#010101; stroke:none;" d="M1603 331L1604 332L1603 331z"/>
<path style="fill:#235c99; stroke:none;" d="M1723 331L1724 332L1723 331M1727 332L1725 335C1727.26 334.538 1728.21 334.145 1727 332z"/>
<path style="fill:#86b3d7; stroke:none;" d="M133 334L134 335L133 334z"/>
<path style="fill:#235c99; stroke:none;" d="M261 334L261 335L266 335L261 334z"/>
<path style="fill:#86b3d7; stroke:none;" d="M266.667 334.333L267.333 334.667L266.667 334.333M1592 334L1593 335L1592 334M280.667 335.333L281.333 335.667L280.667 335.333z"/>
<path style="fill:#235c99; stroke:none;" d="M282.667 335.333L283.333 335.667L282.667 335.333M1732 335L1733 336L1732 335M1734 335L1740 340L1740 339L1737 338L1739 336L1734 335z"/>
<path style="fill:#498bc7; stroke:none;" d="M1735 335L1736 336L1735 335z"/>
<path style="fill:#86b3d7; stroke:none;" d="M284 336L285 337L284 336z"/>
<path style="fill:#498bc7; stroke:none;" d="M1736 336L1737 337L1736 336M1737.67 337.333L1738.33 337.667L1737.67 337.333z"/>
<path style="fill:#86b3d7; stroke:none;" d="M1738 339L1739 340L1738 339z"/>
<path style="fill:#235c99; stroke:none;" d="M294 340L295 341L294 340z"/>
<path style="fill:#86b3d7; stroke:none;" d="M296 340L297 341L296 340z"/>
<path style="fill:#235c99; stroke:none;" d="M297 340L297 341L303 342L297 340z"/>
<path style="fill:#86b3d7; stroke:none;" d="M302.667 340.333L303.333 340.667L302.667 340.333M1741 340L1742 341L1741 340z"/>
<path style="fill:#235c99; stroke:none;" d="M1742 340L1743 341L1742 340z"/>
<path style="fill:#86b3d7; stroke:none;" d="M1744 340L1745 341L1744 340z"/>
<path style="fill:#235c99; stroke:none;" d="M306 341L308 343L306 341z"/>
<path style="fill:#86b3d7; stroke:none;" d="M307 341L308 342L307 341z"/>
<path style="fill:#235c99; stroke:none;" d="M1746 341L1747 342L1746 341M1748 341L1749 342L1748 341M1747 342L1747 346L1751 343L1747 342M1746 344L1747 345L1746 344z"/>
<path style="fill:#498bc7; stroke:none;" d="M105 346L106 347L105 346z"/>
<path style="fill:#235c99; stroke:none;" d="M323 346L324 347L323 346z"/>
<path style="fill:#86b3d7; stroke:none;" d="M329.333 346.667L329.667 347.333L329.333 346.667z"/>
<path style="fill:#498bc7; stroke:none;" d="M1535 346L1536 347L1535 346z"/>
<path style="fill:#235c99; stroke:none;" d="M1754.67 346.333L1755.33 346.667L1754.67 346.333z"/>
<path style="fill:#86b3d7; stroke:none;" d="M1756 346L1757 347L1756 346z"/>
<path style="fill:#235c99; stroke:none;" d="M1757 346L1758 347L1757 346M1758 347L1758 351L1762 352L1763 349L1758 347z"/>
<path style="fill:#498bc7; stroke:none;" d="M1761 348L1762 349L1761 348z"/>
<path style="fill:#86b3d7; stroke:none;" d="M332 349L334 351L332 349z"/>
<path style="fill:#235c99; stroke:none;" d="M331 350L331 352L333 350L331 350z"/>
<path style="fill:#498bc7; stroke:none;" d="M1762 350L1763 351L1762 350z"/>
<path style="fill:#235c99; stroke:none;" d="M349 352L350 353L349 352M1767 352L1768 353L1767 352M1769 352L1770 353L1769 352M354 353L358 357L358 356L354 353M1771 353L1774 356L1773 353L1771 353M1770 356L1771 357L1770 356M1774 356L1775 357L1774 356z"/>
<path style="fill:#010101; stroke:none;" d="M355 357L356 358L355 357z"/>
<path style="fill:#c001e0; stroke:none;" d="M356.667 357.333L357.333 357.667L356.667 357.333z"/>
<path style="fill:#235c99; stroke:none;" d="M1773 357L1774 358L1773 357M374.667 358.333L375.333 358.667L374.667 358.333M377 358L378 359L377 358z"/>
<path style="fill:#86b3d7; stroke:none;" d="M378 358L379 359L378 358z"/>
<path style="fill:#235c99; stroke:none;" d="M1781 358L1781 361L1782 361L1781 358M380 359L381 360L380 359z"/>
<path style="fill:#86b3d7; stroke:none;" d="M381 359L382 360L381 359z"/>
<path style="fill:#235c99; stroke:none;" d="M1783 359L1786 362L1783 359M379 360L382 363L379 360z"/>
<path style="fill:#86b3d7; stroke:none;" d="M382 360L383 361L382 360z"/>
<path style="fill:#235c99; stroke:none;" d="M382 361L383 362L382 361z"/>
<path style="fill:#010101; stroke:none;" d="M1483 361L1482 363L1483 361z"/>
<path style="fill:#235c99; stroke:none;" d="M1783 363L1784 364L1783 363M398.667 364.333L399.333 364.667L398.667 364.333z"/>
<path style="fill:#86b3d7; stroke:none;" d="M400.667 364.333L401.333 364.667L400.667 364.333z"/>
<path style="fill:#235c99; stroke:none;" d="M402.667 364.333L403.333 364.667L402.667 364.333M1794 364L1795 365L1794 364M404 365L406 369L407 369L404 365M1793.33 365.667L1793.67 366.333L1793.33 365.667M1795 365L1798 367L1795 365M402 366L403 367L402 366z"/>
<path style="fill:#86b3d7; stroke:none;" d="M406 366L407 367L406 366z"/>
<path style="fill:#235c99; stroke:none;" d="M1796 368L1796 370L1798 368L1796 368z"/>
<path style="fill:#86b3d7; stroke:none;" d="M409 369L410 370L409 369z"/>
<path style="fill:#235c99; stroke:none;" d="M410 369L410 370L413 370L410 369M414 369L415 370L414 369M417 369L418 370L417 369z"/>
<path style="fill:#c001e0; stroke:none;" d="M418 369L419 370L418 369z"/>
<path style="fill:#86b3d7; stroke:none;" d="M421.667 369.333L422.333 369.667L421.667 369.333z"/>
<path style="fill:#235c99; stroke:none;" d="M1801 369L1802 370L1801 369z"/>
<path style="fill:#86b3d7; stroke:none;" d="M1802 369L1803 370L1802 369z"/>
<path style="fill:#235c99; stroke:none;" d="M422 370L423 371L422 370M424 370L425 371L424 370z"/>
<path style="fill:#86b3d7; stroke:none;" d="M425 370L426 371L425 370z"/>
<path style="fill:#235c99; stroke:none;" d="M427 370L427 372L429 370L427 370z"/>
<path style="fill:#86b3d7; stroke:none;" d="M1804 370L1805 371L1804 370z"/>
<path style="fill:#235c99; stroke:none;" d="M1806 370L1807 371L1806 370M1805.33 371.667L1805.67 372.333L1805.33 371.667M1807 371L1809 373L1809 371L1807 371M428.667 372.333L429.333 372.667L428.667 372.333z"/>
<path style="fill:#010101; stroke:none;" d="M1434 372L1433 374L1434 372z"/>
<path style="fill:#235c99; stroke:none;" d="M430 373L428 374L428 375L430 373M1809 373L1810 374L1809 373z"/>
<path style="fill:#86b3d7; stroke:none;" d="M430 374L431 375L430 374z"/>
<path style="fill:#235c99; stroke:none;" d="M1804 374L1805 375L1804 374M1806 374L1807 375L1806 374z"/>
<path style="fill:#86b3d7; stroke:none;" d="M1809 374L1810 375L1809 374z"/>
<path style="fill:#235c99; stroke:none;" d="M439 375L440 376L439 375M443 375L443 376L446 376L443 375M447 375L448 376L447 375z"/>
<path style="fill:#86b3d7; stroke:none;" d="M448 375L449 376L448 375z"/>
<path style="fill:#235c99; stroke:none;" d="M1813 375L1814 376L1813 375z"/>
<path style="fill:#86b3d7; stroke:none;" d="M1814.67 375.333L1815.33 375.667L1814.67 375.333z"/>
<path style="fill:#235c99; stroke:none;" d="M1816 376L1817 379L1818 379L1819 376L1816 376M1819.67 377.333L1820.33 377.667L1819.67 377.333M1818 379L1818 381L1821 381L1821 379L1818 379M1825.67 381.333L1826.33 381.667L1825.67 381.333z"/>
<path style="fill:#86b3d7; stroke:none;" d="M1827 381L1828 382L1827 381z"/>
<path style="fill:#235c99; stroke:none;" d="M1829 382L1833 387L1829 382z"/>
<path style="fill:#498bc7; stroke:none;" d="M1830 383L1832 385L1830 383z"/>
<path style="fill:#235c99; stroke:none;" d="M1828 385L1830 387L1828 385M1833 1655L1834 1656L1833 1655M1833 1657L1834 1658L1833 1657M1830 1660L1831 1661L1830 1660z"/>
<path style="fill:#86b3d7; stroke:none;" d="M1831.67 1660.33L1832.33 1660.67L1831.67 1660.33z"/>
<path style="fill:#235c99; stroke:none;" d="M1821 1665L1822 1666L1821 1665M446 1666L447 1667L446 1666M1817 1666L1818 1667L1817 1666M1819 1666L1820 1667L1819 1666z"/>
<path style="fill:#86b3d7; stroke:none;" d="M1820 1666L1821 1667L1820 1666z"/>
<path style="fill:#235c99; stroke:none;" d="M432 1667L433 1668L432 1667z"/>
<path style="fill:#86b3d7; stroke:none;" d="M436 1668L437 1669L436 1668z"/>
<path style="fill:#235c99; stroke:none;" d="M1810 1668L1811 1669L1810 1668z"/>
<path style="fill:#86b3d7; stroke:none;" d="M1810 1669L1811 1670L1810 1669z"/>
<path style="fill:#235c99; stroke:none;" d="M434 1670L435 1671L434 1670M420 1672L421 1673L420 1672M424 1672L425 1673L424 1672z"/>
<path style="fill:#86b3d7; stroke:none;" d="M426 1672L427 1673L426 1672z"/>
<path style="fill:#235c99; stroke:none;" d="M427 1672L427 1673L430 1673L427 1672z"/>
<path style="fill:#86b3d7; stroke:none;" d="M430 1672L431 1673L430 1672z"/>
<path style="fill:#235c99; stroke:none;" d="M1802 1672L1803 1673L1802 1672M1805 1672L1805 1673L1808 1673L1805 1672z"/>
<path style="fill:#86b3d7; stroke:none;" d="M1808 1672L1809 1673L1808 1672z"/>
<path style="fill:#235c99; stroke:none;" d="M410.667 1673.33L411.333 1673.67L410.667 1673.33M412 1674L413 1675L412 1674M410 1675L410 1677L412 1677L412 1675L410 1675M408 1676L409 1677L408 1676M404 1677L405 1678L404 1677M406 1677L407 1678L406 1677M409 1677L410 1678L409 1677M392 1678L393 1679L392 1678M394 1678L395 1679L394 1678M398 1678L399 1679L398 1678z"/>
<path style="fill:#86b3d7; stroke:none;" d="M404 1678L405 1679L404 1678M1795 1678L1796 1679L1795 1678z"/>
<path style="fill:#235c99; stroke:none;" d="M386.333 1679.67L386.667 1680.33L386.333 1679.67z"/>
<path style="fill:#86b3d7; stroke:none;" d="M387 1680L388 1681L387 1680M386 1681L387 1682L386 1681M388 1681L389 1682L388 1681z"/>
<path style="fill:#235c99; stroke:none;" d="M385 1682L386 1683L385 1682z"/>
<path style="fill:#86b3d7; stroke:none;" d="M387 1682L388 1683L387 1682M383 1683L384 1684L383 1683z"/>
<path style="fill:#235c99; stroke:none;" d="M384 1683L385 1684L384 1683z"/>
<path style="fill:#498bc7; stroke:none;" d="M1478 1683L1479 1684L1478 1683z"/>
<path style="fill:#235c99; stroke:none;" d="M1784 1683L1785 1684L1784 1683M1786 1683L1787 1684L1786 1683M361 1684L361 1688L365 1684L361 1684z"/>
<path style="fill:#86b3d7; stroke:none;" d="M1777 1684L1778 1685L1777 1684z"/>
<path style="fill:#498bc7; stroke:none;" d="M364 1685L365 1686L364 1685z"/>
<path style="fill:#86b3d7; stroke:none;" d="M1775.33 1685.67L1775.67 1686.33L1775.33 1685.67z"/>
<path style="fill:#498bc7; stroke:none;" d="M363 1686L364 1687L363 1686M362 1687L363 1688L362 1687z"/>
<path style="fill:#235c99; stroke:none;" d="M357 1690L360 1690L359 1688L357 1690M360 1688L361 1689L360 1688z"/>
<path style="fill:#498bc7; stroke:none;" d="M1501 1688L1502 1689L1501 1688z"/>
<path style="fill:#235c99; stroke:none;" d="M1772 1689L1772 1690L1775 1690L1772 1689M336 1690L336 1693L338 1693L338 1690L336 1690z"/>
<path style="fill:#498bc7; stroke:none;" d="M1525 1694L1526 1695L1525 1694z"/>
<path style="fill:#86b3d7; stroke:none;" d="M1762.67 1694.33L1763.33 1694.67L1762.67 1694.33z"/>
<path style="fill:#235c99; stroke:none;" d="M333 1695L334 1696L333 1695z"/>
<path style="fill:#86b3d7; stroke:none;" d="M334.667 1695.33L335.333 1695.67L334.667 1695.33z"/>
<path style="fill:#235c99; stroke:none;" d="M1759 1695L1760 1696L1759 1695M1761.67 1695.33L1762.33 1695.67L1761.67 1695.33M313 1696L313 1700L314 1700L313 1696z"/>
<path style="fill:#86b3d7; stroke:none;" d="M310 1702L313 1700L310 1702z"/>
<path style="fill:#498bc7; stroke:none;" d="M1549 1700L1550 1701L1549 1700z"/>
<path style="fill:#235c99; stroke:none;" d="M300 1701L301 1702L300 1701M303 1701L304 1702L303 1701M305 1701L306 1702L305 1701M307 1701L307 1702L310 1702L307 1701M1746 1701L1747 1702L1746 1701M1748.67 1701.33L1749.33 1701.67L1748.67 1701.33z"/>
<path style="fill:#86b3d7; stroke:none;" d="M1750 1701L1751 1702L1750 1701z"/>
<path style="fill:#235c99; stroke:none;" d="M290.333 1703.67L290.667 1704.33L290.333 1703.67M288 1704L289 1705L288 1704z"/>
<path style="fill:#86b3d7; stroke:none;" d="M290 1705L291 1706L290 1705z"/>
<path style="fill:#235c99; stroke:none;" d="M286 1706L287 1707L286 1706M289 1706L290 1707L289 1706M1738 1706L1739 1707L1738 1706M272 1707L273 1708L272 1707z"/>
<path style="fill:#86b3d7; stroke:none;" d="M276 1707L277 1708L276 1707z"/>
<path style="fill:#235c99; stroke:none;" d="M277 1707L278 1708L277 1707z"/>
<path style="fill:#86b3d7; stroke:none;" d="M279 1707L280 1708L279 1707z"/>
<path style="fill:#235c99; stroke:none;" d="M280.667 1707.33L281.333 1707.67L280.667 1707.33M283 1707L284 1708L283 1707z"/>
<path style="fill:#86b3d7; stroke:none;" d="M284.667 1707.33L285.333 1707.67L284.667 1707.33z"/>
<path style="fill:#235c99; stroke:none;" d="M1734 1707L1734 1708L1737 1708L1734 1707z"/>
<path style="fill:#86b3d7; stroke:none;" d="M1737 1707L1738 1708L1737 1707z"/>
<path style="fill:#235c99; stroke:none;" d="M264 1708L265 1713L266 1713L267 1708L264 1708z"/>
<path style="fill:#498bc7; stroke:none;" d="M266 1710L267 1711L266 1710z"/>
<path style="fill:#86b3d7; stroke:none;" d="M1728 1711L1729 1712L1728 1711z"/>
<path style="fill:#498bc7; stroke:none;" d="M134 1712L135 1713L134 1712z"/>
<path style="fill:#235c99; stroke:none;" d="M261 1712L262 1713L261 1712z"/>
<path style="fill:#498bc7; stroke:none;" d="M1598 1712L1599 1713L1598 1712z"/>
<path style="fill:#235c99; stroke:none;" d="M1726 1712L1727 1713L1726 1712z"/>
<path style="fill:#86b3d7; stroke:none;" d="M1727 1712L1728 1713L1727 1712z"/>
<path style="fill:#235c99; stroke:none;" d="M244.667 1713.33L245.333 1713.67L244.667 1713.33z"/>
<path style="fill:#86b3d7; stroke:none;" d="M247 1713L248 1714L247 1713z"/>
<path style="fill:#235c99; stroke:none;" d="M249 1713L249 1714L252 1714L249 1713z"/>
<path style="fill:#86b3d7; stroke:none;" d="M252 1713L253 1714L252 1713z"/>
<path style="fill:#c001e0; stroke:none;" d="M253 1713L254 1714L253 1713z"/>
<path style="fill:#86b3d7; stroke:none;" d="M1607 1713L1608 1714L1607 1713z"/>
<path style="fill:#235c99; stroke:none;" d="M1717.67 1713.33L1718.33 1713.67L1717.67 1713.33M1720 1713L1721 1714L1720 1713z"/>
<path style="fill:#86b3d7; stroke:none;" d="M1721 1713L1722 1714L1721 1713M243.333 1714.67L243.667 1715.33L243.333 1714.67z"/>
<path style="fill:#235c99; stroke:none;" d="M242 1715L240 1719L242 1715M237 1717L238 1718L237 1717z"/>
<path style="fill:#86b3d7; stroke:none;" d="M239 1717L240 1718L239 1717z"/>
<path style="fill:#235c99; stroke:none;" d="M1716 1717L1717 1718L1716 1717z"/>
<path style="fill:#498bc7; stroke:none;" d="M146 1718L147 1719L146 1718z"/>
<path style="fill:#235c99; stroke:none;" d="M236 1718L237 1719L236 1718M1714 1718L1715 1719L1714 1718z"/>
<path style="fill:#86b3d7; stroke:none;" d="M1715 1718L1716 1719L1715 1718z"/>
<path style="fill:#235c99; stroke:none;" d="M216 1719L214 1724L219 1723L218 1719L216 1719z"/>
<path style="fill:#498bc7; stroke:none;" d="M158 1724L159 1725L158 1724z"/>
<path style="fill:#235c99; stroke:none;" d="M206 1724L207 1725L206 1724M208 1724L209 1725L208 1724M211.667 1724.33L212.333 1724.67L211.667 1724.33z"/>
<path style="fill:#86b3d7; stroke:none;" d="M214 1724L215 1725L214 1724M1703.67 1724.33L1704.33 1724.67L1703.67 1724.33z"/>
<path style="fill:#235c99; stroke:none;" d="M191 1727L194 1725L191 1727z"/>
<path style="fill:#86b3d7; stroke:none;" d="M1693 1725L1694 1726L1693 1725z"/>
<path style="fill:#235c99; stroke:none;" d="M194.667 1726.33L195.333 1726.67L194.667 1726.33M1668 1726L1669 1727L1668 1726M193 1727L194 1728L193 1727M1669 1727L1670 1728L1669 1727M192 1728L193 1729L192 1728z"/>
<path style="fill:#86b3d7; stroke:none;" d="M1693 1728L1694 1729L1693 1728z"/>
<path style="fill:#235c99; stroke:none;" d="M191 1729L192 1730L191 1729z"/>
<path style="fill:#86b3d7; stroke:none;" d="M1692.33 1729.67L1692.67 1730.33L1692.33 1729.67z"/>
<path style="fill:#235c99; stroke:none;" d="M180 1730L181 1731L180 1730M183 1730L184 1731L183 1730M187 1730L188 1731L187 1730M189.667 1730.33L190.333 1730.67L189.667 1730.33M1690.67 1730.33L1691.33 1730.67L1690.67 1730.33z"/>
<path style="fill:#86b3d7; stroke:none;" d="M1411 1870L1412 1871L1411 1870z"/>
<path style="fill:#235c99; stroke:none;" d="M1412 1870L1413 1871L1412 1870M1410 1873L1408 1875L1411 1875L1412 1871L1410 1873z"/>
<path style="fill:#498bc7; stroke:none;" d="M1411 1872L1412 1873L1411 1872z"/>
<path style="fill:#86b3d7; stroke:none;" d="M1411 1873L1412 1874L1411 1873z"/>
<path style="fill:#498bc7; stroke:none;" d="M1409 1874L1410 1875L1409 1874z"/>
<path style="fill:#235c99; stroke:none;" d="M1407 1875L1408 1876L1407 1875M1397 1878L1400 1876L1397 1878M1396 1878L1395 1882L1400 1880L1396 1878z"/>
<path style="fill:#498bc7; stroke:none;" d="M1397 1880L1398 1881L1397 1880z"/>
<path style="fill:#235c99; stroke:none;" d="M1392 1881L1393 1882L1392 1881z"/>
<path style="fill:#86b3d7; stroke:none;" d="M1394 1881L1395 1882L1394 1881z"/>
<path style="fill:#235c99; stroke:none;" d="M1386 1882L1386 1887L1387 1887L1386 1882z"/>
<path style="fill:#86b3d7; stroke:none;" d="M1388 1882L1389 1883L1388 1882z"/>
<path style="fill:#235c99; stroke:none;" d="M1384 1884L1384 1887L1385 1887L1384 1884M1381 1887L1382 1888L1381 1887M1376 1888L1377 1889L1376 1888M1372 1890L1372 1893L1373 1893L1372 1890M1375.67 1890.33L1376.33 1890.67L1375.67 1890.33M1374.33 1891.67L1374.67 1892.33L1374.33 1891.67z"/>
<path style="fill:#498bc7; stroke:none;" d="M491 1893L492 1894L491 1893z"/>
<path style="fill:#235c99; stroke:none;" d="M1368 1893L1369 1894L1368 1893M1371 1893L1372 1894L1371 1893z"/>
<path style="fill:#86b3d7; stroke:none;" d="M1363.67 1894.33L1364.33 1894.67L1363.67 1894.33z"/>
<path style="fill:#235c99; stroke:none;" d="M1364 1895L1365 1896L1364 1895M1363 1896L1364 1897L1363 1896M1361.67 1897.33L1362.33 1897.67L1361.67 1897.33M1360 1898L1361 1899L1360 1898z"/>
<path style="fill:#86b3d7; stroke:none;" d="M1362 1898L1363 1899L1362 1898z"/>
<path style="fill:#235c99; stroke:none;" d="M1354 1899L1354 1900L1358 1900L1354 1899z"/>
<path style="fill:#86b3d7; stroke:none;" d="M1358 1899L1359 1900L1358 1899z"/>
<path style="fill:#235c99; stroke:none;" d="M1351.67 1901.33L1352.33 1901.67L1351.67 1901.33z"/>
<path style="fill:#86b3d7; stroke:none;" d="M1353 1901L1354 1902L1353 1901z"/>
<path style="fill:#235c99; stroke:none;" d="M1350 1902L1349 1905L1350 1902z"/>
<path style="fill:#010101; stroke:none;" d="M521 1905L522 1906L521 1905z"/>
<path style="fill:#235c99; stroke:none;" d="M1339 1907L1340 1908L1339 1907M1341 1907L1342 1908L1341 1907M1338 1908L1337 1910L1339 1910L1338 1908z"/>
<path style="fill:#86b3d7; stroke:none;" d="M1340 1909L1341 1910L1340 1909z"/>
<path style="fill:#235c99; stroke:none;" d="M1334 1910L1335 1911L1334 1910z"/>
<path style="fill:#86b3d7; stroke:none;" d="M1337 1910L1338 1911L1337 1910z"/>
<path style="fill:#235c99; stroke:none;" d="M1327 1911L1325 1916L1330 1911L1327 1911z"/>
<path style="fill:#498bc7; stroke:none;" d="M1329 1913L1327 1916L1329 1913z"/>
<path style="fill:#86b3d7; stroke:none;" d="M1329 1914L1330 1915L1329 1914M1328 1915L1329 1916L1328 1915z"/>
<path style="fill:#235c99; stroke:none;" d="M1314 1917L1315 1918L1314 1917M1316 1917L1316 1920L1312 1923L1318 1921L1316 1917z"/>
<path style="fill:#86b3d7; stroke:none;" d="M1318 1917L1319 1918L1318 1917z"/>
<path style="fill:#235c99; stroke:none;" d="M1318 1918L1319 1919L1318 1918z"/>
<path style="fill:#498bc7; stroke:none;" d="M1315 1921L1316 1922L1315 1921z"/>
<path style="fill:#86b3d7; stroke:none;" d="M1316 1921L1317 1922L1316 1921z"/>
<path style="fill:#498bc7; stroke:none;" d="M549 1922L550 1923L549 1922z"/>
<path style="fill:#86b3d7; stroke:none;" d="M1313 1922L1314 1923L1313 1922z"/>
<path style="fill:#235c99; stroke:none;" d="M1305 1924L1303 1928L1305 1924M1302 1925L1303 1926L1302 1925z"/>
<path style="fill:#86b3d7; stroke:none;" d="M1306 1925L1307 1926L1306 1925z"/>
<path style="fill:#498bc7; stroke:none;" d="M562 1928L563 1929L562 1928z"/>
<path style="fill:#235c99; stroke:none;" d="M1297 1928L1298 1929L1297 1928z"/>
<path style="fill:#86b3d7; stroke:none;" d="M1299 1928L1300 1929L1299 1928M1293 1929L1294 1930L1293 1929z"/>
<path style="fill:#235c99; stroke:none;" d="M1294 1929L1295 1930L1294 1929M1290 1931L1291 1932L1290 1931M1292 1933L1295 1931L1292 1933M1291 1933L1292 1934L1291 1933M1282 1937L1286 1935L1282 1937z"/>
<path style="fill:#86b3d7; stroke:none;" d="M1286.67 1934.33L1287.33 1934.67L1286.67 1934.33z"/>
<path style="fill:#235c99; stroke:none;" d="M1281 1937L1282 1938L1281 1937M1280 1938L1281 1939L1280 1938M1278 1939L1279 1940L1278 1939z"/>
<path style="fill:#86b3d7; stroke:none;" d="M1279 1939L1280 1940L1279 1939z"/>
<path style="fill:#235c99; stroke:none;" d="M1270 1940L1271 1941L1270 1940M1270.67 1942.33L1271.33 1942.67L1270.67 1942.33M1269 1943L1270 1944L1269 1943M1268 1944L1269 1945L1268 1944M1266 1945L1267 1946L1266 1945M1257 1946L1258 1947L1257 1946z"/>
<path style="fill:#86b3d7; stroke:none;" d="M1259 1946L1260 1947L1259 1946z"/>
<path style="fill:#235c99; stroke:none;" d="M1259 1947L1260 1948L1259 1947M1257 1948L1258 1949L1257 1948M1255 1950L1256 1951L1255 1950M1257 1950L1258 1951L1257 1950M1254 1951L1255 1952L1254 1951z"/>
<path style="fill:#86b3d7; stroke:none;" d="M1248 1952L1249 1953L1248 1952z"/>
<path style="fill:#235c99; stroke:none;" d="M1245 1955L1248 1953L1245 1955M1243 1955L1244 1956L1243 1955z"/>
<path style="fill:#86b3d7; stroke:none;" d="M1247 1955L1248 1956L1247 1955z"/>
<path style="fill:#235c99; stroke:none;" d="M1245 1956L1246 1957L1245 1956z"/>
<path style="fill:#498bc7; stroke:none;" d="M620 1957L621 1958L620 1957z"/>
<path style="fill:#86b3d7; stroke:none;" d="M1241 1957L1242 1958L1241 1957z"/>
<path style="fill:#235c99; stroke:none;" d="M1242 1957L1243 1958L1242 1957M1233 1959L1233 1961L1235 1961L1235 1959L1233 1959M1236 1959L1237 1960L1236 1959M1235 1961L1236 1962L1235 1961M1233 1962L1234 1963L1233 1962z"/>
<path style="fill:#498bc7; stroke:none;" d="M634 1963L635 1964L634 1963z"/>
<path style="fill:#235c99; stroke:none;" d="M1225 1963L1226 1964L1225 1963z"/>
<path style="fill:#86b3d7; stroke:none;" d="M1227 1963L1228 1964L1227 1963z"/>
<path style="fill:#235c99; stroke:none;" d="M1229 1963L1230 1964L1229 1963M1223 1966L1219 1968L1219 1969L1224 1968L1225 1964L1223 1966z"/>
<path style="fill:#498bc7; stroke:none;" d="M1224 1965L1225 1966L1224 1965z"/>
<path style="fill:#86b3d7; stroke:none;" d="M1224 1966L1225 1967L1224 1966z"/>
<path style="fill:#498bc7; stroke:none;" d="M1222 1967L1223 1968L1222 1967z"/>
<path style="fill:#86b3d7; stroke:none;" d="M1221 1968L1222 1969L1221 1968z"/>
<path style="fill:#235c99; stroke:none;" d="M1213 1969L1214 1970L1213 1969M1210.67 1970.33L1211.33 1970.67L1210.67 1970.33z"/>
<path style="fill:#86b3d7; stroke:none;" d="M1213 1970L1214 1971L1213 1970z"/>
<path style="fill:#235c99; stroke:none;" d="M1209 1971L1209 1974L1210 1974L1209 1971M1211 1972L1211 1974L1213 1972L1211 1972z"/>
<path style="fill:#86b3d7; stroke:none;" d="M1206 1974L1207 1975L1206 1974z"/>
<path style="fill:#235c99; stroke:none;" d="M1207.67 1974.33L1208.33 1974.67L1207.67 1974.33z"/>
<path style="fill:#86b3d7; stroke:none;" d="M1200.67 1975.33L1201.33 1975.67L1200.67 1975.33z"/>
<path style="fill:#235c99; stroke:none;" d="M1200 1976L1199 1980L1200 1980L1202 1976L1200 1976M1197.33 1978.67L1197.67 1979.33L1197.33 1978.67z"/>
<path style="fill:#498bc7; stroke:none;" d="M672 1981L673 1982L672 1981z"/>
<path style="fill:#235c99; stroke:none;" d="M1188.67 1983.33L1189.33 1983.67L1188.67 1983.33M1185 1984L1184 1987L1185 1984M1187.33 1984.67L1187.67 1985.33L1187.33 1984.67M1179 1986L1180 1987L1179 1986z"/>
<path style="fill:#86b3d7; stroke:none;" d="M1182.67 1986.33L1183.33 1986.67L1182.67 1986.33z"/>
<path style="fill:#235c99; stroke:none;" d="M1177 1988L1178 1989L1177 1988M1176 1989L1177 1990L1176 1989M1175 1990L1176 1991L1175 1990M1173 1991L1174 1992L1173 1991z"/>
<path style="fill:#86b3d7; stroke:none;" d="M1175 1991L1176 1992L1175 1991z"/>
<path style="fill:#498bc7; stroke:none;" d="M691 1992L692 1993L691 1992z"/>
<path style="fill:#86b3d7; stroke:none;" d="M1168.67 1992.33L1169.33 1992.67L1168.67 1992.33z"/>
<path style="fill:#235c99; stroke:none;" d="M1164.67 1994.33L1165.33 1994.67L1164.67 1994.33z"/>
<path style="fill:#86b3d7; stroke:none;" d="M1166 1994L1167 1995L1166 1994z"/>
<path style="fill:#235c99; stroke:none;" d="M1161 1997L1164 1995L1161 1997z"/>
<path style="fill:#86b3d7; stroke:none;" d="M1156.67 1998.33L1157.33 1998.67L1156.67 1998.33z"/>
<path style="fill:#235c99; stroke:none;" d="M1152 2000L1150 2004L1152 2000M1154 2000L1155 2001L1154 2000z"/>
<path style="fill:#86b3d7; stroke:none;" d="M1153 2002L1154 2003L1153 2002z"/>
<path style="fill:#235c99; stroke:none;" d="M1148 2003L1149 2004L1148 2003M1140 2004L1141 2005L1140 2004M1139 2009L1143 2005L1139 2009z"/>
<path style="fill:#498bc7; stroke:none;" d="M1142 2006L1143 2007L1142 2006z"/>
<path style="fill:#86b3d7; stroke:none;" d="M1142 2007L1143 2008L1142 2007z"/>
<path style="fill:#498bc7; stroke:none;" d="M1140 2008L1141 2009L1140 2008z"/>
<path style="fill:#86b3d7; stroke:none;" d="M1141 2008L1142 2009L1141 2008M1130 2010L1131 2011L1130 2010z"/>
<path style="fill:#235c99; stroke:none;" d="M1131 2011L1132 2012L1131 2011z"/>
<path style="fill:#498bc7; stroke:none;" d="M1128 2012L1129 2013L1128 2012M1128 2014L1129 2015L1128 2014z"/>
<path style="fill:#86b3d7; stroke:none;" d="M1129 2014L1130 2015L1129 2014z"/>
</svg>
